<svg width="94" height="13" viewBox="0 0 94 13" fill="none" xmlns="http://www.w3.org/2000/svg">
<path d="M7.625 10.3125V12H1.57812V10.3125H7.625ZM2.23438 0.625V12H0.0859375V0.625H2.23438ZM6.83594 5.32031V6.96875H1.57812V5.32031H6.83594ZM7.60156 0.625V2.32031H1.57812V0.625H7.60156ZM12.7734 10.5312C13.0651 10.5312 13.3255 10.474 13.5547 10.3594C13.7839 10.2448 13.9661 10.0833 14.1016 9.875C14.2422 9.66667 14.3177 9.42448 14.3281 9.14844H16.2734C16.263 9.72135 16.1016 10.2344 15.7891 10.6875C15.4766 11.1406 15.0599 11.5 14.5391 11.7656C14.0234 12.026 13.4453 12.1562 12.8047 12.1562C12.1536 12.1562 11.5859 12.0469 11.1016 11.8281C10.6172 11.6094 10.2135 11.3047 9.89062 10.9141C9.57292 10.5234 9.33333 10.0703 9.17188 9.55469C9.01562 9.03906 8.9375 8.48698 8.9375 7.89844V7.64844C8.9375 7.0599 9.01562 6.50781 9.17188 5.99219C9.33333 5.47656 9.57292 5.02344 9.89062 4.63281C10.2135 4.24219 10.6172 3.9375 11.1016 3.71875C11.5859 3.5 12.151 3.39062 12.7969 3.39062C13.4792 3.39062 14.0781 3.52344 14.5938 3.78906C15.1146 4.05469 15.5208 4.42969 15.8125 4.91406C16.1094 5.39844 16.263 5.96875 16.2734 6.625H14.3281C14.3177 6.32292 14.25 6.05208 14.125 5.8125C14 5.57292 13.8229 5.38021 13.5938 5.23438C13.3646 5.08854 13.0859 5.01562 12.7578 5.01562C12.4089 5.01562 12.1172 5.08854 11.8828 5.23438C11.6536 5.38021 11.474 5.58073 11.3438 5.83594C11.2188 6.08594 11.1302 6.36719 11.0781 6.67969C11.0312 6.98698 11.0078 7.3099 11.0078 7.64844V7.89844C11.0078 8.24219 11.0312 8.57031 11.0781 8.88281C11.1302 9.19531 11.2188 9.47656 11.3438 9.72656C11.474 9.97135 11.6536 10.1667 11.8828 10.3125C12.1172 10.4583 12.4141 10.5312 12.7734 10.5312ZM17.7812 7.85938V7.69531C17.7812 7.07552 17.8698 6.50521 18.0469 5.98438C18.224 5.45833 18.4818 5.0026 18.8203 4.61719C19.1589 4.23177 19.5729 3.93229 20.0625 3.71875C20.5521 3.5 21.1094 3.39062 21.7344 3.39062C22.3698 3.39062 22.9323 3.5 23.4219 3.71875C23.9167 3.93229 24.3333 4.23177 24.6719 4.61719C25.0104 5.0026 25.2682 5.45833 25.4453 5.98438C25.6224 6.50521 25.7109 7.07552 25.7109 7.69531V7.85938C25.7109 8.47396 25.6224 9.04427 25.4453 9.57031C25.2682 10.0911 25.0104 10.5469 24.6719 10.9375C24.3333 11.3229 23.9193 11.6224 23.4297 11.8359C22.9401 12.0495 22.3802 12.1562 21.75 12.1562C21.125 12.1562 20.5651 12.0495 20.0703 11.8359C19.5755 11.6224 19.1589 11.3229 18.8203 10.9375C18.4818 10.5469 18.224 10.0911 18.0469 9.57031C17.8698 9.04427 17.7812 8.47396 17.7812 7.85938ZM19.8438 7.69531V7.85938C19.8438 8.22917 19.8802 8.57552 19.9531 8.89844C20.026 9.22135 20.138 9.50521 20.2891 9.75C20.4401 9.99479 20.6354 10.1875 20.875 10.3281C21.1198 10.4635 21.4115 10.5312 21.75 10.5312C22.0833 10.5312 22.3698 10.4635 22.6094 10.3281C22.849 10.1875 23.0443 9.99479 23.1953 9.75C23.3516 9.50521 23.4661 9.22135 23.5391 8.89844C23.612 8.57552 23.6484 8.22917 23.6484 7.85938V7.69531C23.6484 7.33073 23.612 6.98958 23.5391 6.67188C23.4661 6.34896 23.3516 6.0651 23.1953 5.82031C23.0443 5.57031 22.8464 5.375 22.6016 5.23438C22.362 5.08854 22.0729 5.01562 21.7344 5.01562C21.401 5.01562 21.1146 5.08854 20.875 5.23438C20.6354 5.375 20.4401 5.57031 20.2891 5.82031C20.138 6.0651 20.026 6.34896 19.9531 6.67188C19.8802 6.98958 19.8438 7.33073 19.8438 7.69531ZM31.8203 6.3125V7.94531H27.5469V6.3125H31.8203ZM34.0781 0H36.1484V10.1328L35.9453 12H34.0781V0ZM41.5859 7.6875V7.85156C41.5859 8.48177 41.5156 9.0599 41.375 9.58594C41.2396 10.112 41.0339 10.5677 40.7578 10.9531C40.4818 11.3333 40.138 11.6302 39.7266 11.8438C39.3203 12.0521 38.8438 12.1562 38.2969 12.1562C37.776 12.1562 37.3229 12.0547 36.9375 11.8516C36.5573 11.6484 36.237 11.362 35.9766 10.9922C35.7161 10.6172 35.5078 10.1771 35.3516 9.67188C35.1953 9.16146 35.0781 8.60417 35 8V7.55469C35.0781 6.94531 35.1953 6.38802 35.3516 5.88281C35.5078 5.3776 35.7161 4.9375 35.9766 4.5625C36.237 4.1875 36.5573 3.89844 36.9375 3.69531C37.3177 3.49219 37.7656 3.39062 38.2812 3.39062C38.8333 3.39062 39.3151 3.4974 39.7266 3.71094C40.1432 3.91927 40.487 4.21615 40.7578 4.60156C41.0339 4.98177 41.2396 5.4349 41.375 5.96094C41.5156 6.48177 41.5859 7.05729 41.5859 7.6875ZM39.5156 7.85156V7.6875C39.5156 7.32812 39.487 6.98958 39.4297 6.67188C39.3724 6.34896 39.2786 6.0651 39.1484 5.82031C39.0182 5.57552 38.8411 5.38281 38.6172 5.24219C38.3932 5.10156 38.112 5.03125 37.7734 5.03125C37.4505 5.03125 37.1745 5.08594 36.9453 5.19531C36.7214 5.30469 36.5339 5.45573 36.3828 5.64844C36.237 5.84115 36.1224 6.06771 36.0391 6.32812C35.9609 6.58854 35.9089 6.86979 35.8828 7.17188V8.39062C35.9193 8.79167 36.0052 9.15365 36.1406 9.47656C36.276 9.79427 36.4766 10.0469 36.7422 10.2344C37.013 10.4219 37.362 10.5156 37.7891 10.5156C38.1224 10.5156 38.401 10.4505 38.625 10.3203C38.849 10.1849 39.026 9.9974 39.1562 9.75781C39.2865 9.51302 39.3776 9.22917 39.4297 8.90625C39.487 8.58333 39.5156 8.23177 39.5156 7.85156ZM48.6172 9.99219V3.54688H50.6953V12H48.7422L48.6172 9.99219ZM48.8828 8.24219L49.5234 8.22656C49.5234 8.79427 49.4609 9.31771 49.3359 9.79688C49.2109 10.276 49.0156 10.6927 48.75 11.0469C48.4896 11.3958 48.1589 11.6693 47.7578 11.8672C47.3568 12.0599 46.8828 12.1562 46.3359 12.1562C45.9193 12.1562 45.5391 12.099 45.1953 11.9844C44.8516 11.8646 44.5547 11.6797 44.3047 11.4297C44.0599 11.1745 43.8698 10.849 43.7344 10.4531C43.599 10.0521 43.5312 9.57031 43.5312 9.00781V3.54688H45.5938V9.02344C45.5938 9.30469 45.625 9.53906 45.6875 9.72656C45.7552 9.91406 45.8464 10.0677 45.9609 10.1875C46.0807 10.3021 46.2188 10.3854 46.375 10.4375C46.5365 10.4844 46.7083 10.5078 46.8906 10.5078C47.3906 10.5078 47.7839 10.4089 48.0703 10.2109C48.362 10.0078 48.5703 9.73698 48.6953 9.39844C48.8203 9.05469 48.8828 8.66927 48.8828 8.24219ZM55.2109 3.54688V12H53.1406V3.54688H55.2109ZM53 1.33594C53 1.02865 53.1042 0.773438 53.3125 0.570312C53.526 0.367188 53.8125 0.265625 54.1719 0.265625C54.5312 0.265625 54.8151 0.367188 55.0234 0.570312C55.237 0.773438 55.3438 1.02865 55.3438 1.33594C55.3438 1.63802 55.237 1.89062 55.0234 2.09375C54.8151 2.29688 54.5312 2.39844 54.1719 2.39844C53.8125 2.39844 53.526 2.29688 53.3125 2.09375C53.1042 1.89062 53 1.63802 53 1.33594ZM59.8672 0V12H57.7969V0H59.8672ZM67.4062 10.2031V0H69.4844V12H67.6094L67.4062 10.2031ZM61.9766 7.875V7.71094C61.9766 7.0651 62.0495 6.47917 62.1953 5.95312C62.3464 5.42188 62.5651 4.96615 62.8516 4.58594C63.138 4.20573 63.4844 3.91146 63.8906 3.70312C64.3021 3.49479 64.7682 3.39062 65.2891 3.39062C65.7943 3.39062 66.2344 3.49219 66.6094 3.69531C66.9896 3.89844 67.3125 4.1875 67.5781 4.5625C67.849 4.9375 68.0651 5.38281 68.2266 5.89844C68.388 6.40885 68.5052 6.97135 68.5781 7.58594V8.03125C68.5052 8.63021 68.388 9.17969 68.2266 9.67969C68.0651 10.1797 67.849 10.6172 67.5781 10.9922C67.3125 11.362 66.9896 11.6484 66.6094 11.8516C66.2292 12.0547 65.7839 12.1562 65.2734 12.1562C64.7578 12.1562 64.2943 12.0495 63.8828 11.8359C63.4766 11.6224 63.1302 11.3229 62.8438 10.9375C62.5625 10.5521 62.3464 10.099 62.1953 9.57812C62.0495 9.05729 61.9766 8.48958 61.9766 7.875ZM64.0469 7.71094V7.875C64.0469 8.23958 64.0781 8.58073 64.1406 8.89844C64.2031 9.21615 64.3047 9.4974 64.4453 9.74219C64.5859 9.98177 64.7656 10.1693 64.9844 10.3047C65.2083 10.4401 65.4792 10.5078 65.7969 10.5078C66.2031 10.5078 66.5365 10.4193 66.7969 10.2422C67.0625 10.0599 67.2682 9.8125 67.4141 9.5C67.5599 9.18229 67.6536 8.82552 67.6953 8.42969V7.20312C67.6745 6.89062 67.6198 6.60156 67.5312 6.33594C67.4479 6.07031 67.3281 5.84115 67.1719 5.64844C67.0208 5.45573 66.8333 5.30469 66.6094 5.19531C66.3854 5.08594 66.1198 5.03125 65.8125 5.03125C65.4948 5.03125 65.224 5.10156 65 5.24219C64.776 5.3776 64.5938 5.56771 64.4531 5.8125C64.3125 6.05729 64.2083 6.34115 64.1406 6.66406C64.0781 6.98698 64.0469 7.33594 64.0469 7.71094ZM75.6484 12.1562C75.0078 12.1562 74.4323 12.0521 73.9219 11.8438C73.4115 11.6354 72.9766 11.3464 72.6172 10.9766C72.263 10.6016 71.9896 10.1667 71.7969 9.67188C71.6094 9.17188 71.5156 8.63542 71.5156 8.0625V7.75C71.5156 7.09896 71.6094 6.50781 71.7969 5.97656C71.9844 5.4401 72.25 4.97917 72.5938 4.59375C72.9375 4.20833 73.349 3.91146 73.8281 3.70312C74.3073 3.49479 74.8359 3.39062 75.4141 3.39062C76.013 3.39062 76.5417 3.49219 77 3.69531C77.4583 3.89323 77.8411 4.17448 78.1484 4.53906C78.4557 4.90365 78.6875 5.34115 78.8438 5.85156C79 6.35677 79.0781 6.91667 79.0781 7.53125V8.39844H72.4531V6.97656H77.0469V6.82031C77.0365 6.49219 76.974 6.19271 76.8594 5.92188C76.7448 5.64583 76.5677 5.42708 76.3281 5.26562C76.0885 5.09896 75.7786 5.01562 75.3984 5.01562C75.0911 5.01562 74.8229 5.08333 74.5938 5.21875C74.3698 5.34896 74.1823 5.53646 74.0312 5.78125C73.8854 6.02083 73.776 6.30729 73.7031 6.64062C73.6302 6.97396 73.5938 7.34375 73.5938 7.75V8.0625C73.5938 8.41667 73.6406 8.74479 73.7344 9.04688C73.8333 9.34896 73.9766 9.61198 74.1641 9.83594C74.3568 10.0547 74.5859 10.2266 74.8516 10.3516C75.1224 10.4714 75.4297 10.5312 75.7734 10.5312C76.2057 10.5312 76.5964 10.4479 76.9453 10.2812C77.2995 10.1094 77.6068 9.85677 77.8672 9.52344L78.9062 10.6016C78.7292 10.862 78.4896 11.112 78.1875 11.3516C77.8906 11.5911 77.5312 11.7865 77.1094 11.9375C76.6875 12.0833 76.2005 12.1562 75.6484 12.1562ZM83.0234 5.27344V12H80.9609V3.54688H82.9141L83.0234 5.27344ZM85.5938 3.49219L85.5625 5.41406C85.4479 5.39323 85.3177 5.3776 85.1719 5.36719C85.0312 5.35677 84.8984 5.35156 84.7734 5.35156C84.4557 5.35156 84.1771 5.39583 83.9375 5.48438C83.6979 5.56771 83.4974 5.6901 83.3359 5.85156C83.1797 6.01302 83.0599 6.21094 82.9766 6.44531C82.8932 6.67448 82.8464 6.9349 82.8359 7.22656L82.3906 7.17188C82.3906 6.63542 82.4453 6.13802 82.5547 5.67969C82.6641 5.22135 82.8229 4.82031 83.0312 4.47656C83.2396 4.13281 83.5 3.86719 83.8125 3.67969C84.1302 3.48698 84.4948 3.39062 84.9062 3.39062C85.0208 3.39062 85.1432 3.40104 85.2734 3.42188C85.4089 3.4375 85.5156 3.46094 85.5938 3.49219ZM91.875 9.6875C91.875 9.51042 91.8281 9.35156 91.7344 9.21094C91.6406 9.07031 91.4635 8.94271 91.2031 8.82812C90.9479 8.70833 90.5729 8.59635 90.0781 8.49219C89.6406 8.39844 89.237 8.28125 88.8672 8.14062C88.4974 8 88.1797 7.83073 87.9141 7.63281C87.6484 7.42969 87.4401 7.19271 87.2891 6.92188C87.1432 6.64583 87.0703 6.32812 87.0703 5.96875C87.0703 5.61979 87.1458 5.29167 87.2969 4.98438C87.4479 4.67188 87.6667 4.39844 87.9531 4.16406C88.2396 3.92448 88.5885 3.73698 89 3.60156C89.4115 3.46094 89.875 3.39062 90.3906 3.39062C91.1094 3.39062 91.7266 3.50781 92.2422 3.74219C92.763 3.97656 93.1615 4.29948 93.4375 4.71094C93.7135 5.11719 93.8516 5.57552 93.8516 6.08594H91.7891C91.7891 5.86198 91.737 5.65885 91.6328 5.47656C91.5339 5.29427 91.3802 5.14844 91.1719 5.03906C90.9635 4.92448 90.7005 4.86719 90.3828 4.86719C90.0964 4.86719 89.8542 4.91406 89.6562 5.00781C89.4635 5.10156 89.3177 5.22396 89.2188 5.375C89.1198 5.52604 89.0703 5.69271 89.0703 5.875C89.0703 6.01042 89.0964 6.13281 89.1484 6.24219C89.2057 6.34635 89.2969 6.44271 89.4219 6.53125C89.5469 6.61979 89.7161 6.70052 89.9297 6.77344C90.1484 6.84635 90.4167 6.91667 90.7344 6.98438C91.3646 7.10938 91.9141 7.27604 92.3828 7.48438C92.8568 7.6875 93.2266 7.95833 93.4922 8.29688C93.7578 8.63542 93.8906 9.06771 93.8906 9.59375C93.8906 9.96875 93.8099 10.3125 93.6484 10.625C93.487 10.9323 93.2526 11.2005 92.9453 11.4297C92.638 11.6589 92.2708 11.8385 91.8438 11.9688C91.4167 12.0938 90.9349 12.1562 90.3984 12.1562C89.6224 12.1562 88.9661 12.0182 88.4297 11.7422C87.8932 11.4609 87.487 11.1068 87.2109 10.6797C86.9349 10.2474 86.7969 9.79948 86.7969 9.33594H88.7734C88.7891 9.66406 88.8776 9.92708 89.0391 10.125C89.2005 10.3229 89.4036 10.4661 89.6484 10.5547C89.8984 10.638 90.1615 10.6797 90.4375 10.6797C90.75 10.6797 91.013 10.638 91.2266 10.5547C91.4401 10.4661 91.6016 10.349 91.7109 10.2031C91.8203 10.0521 91.875 9.88021 91.875 9.6875Z" fill="#3B4A3F"/>
</svg>
